<?xml version="1.0" encoding="utf-8"?>
<!-- Generator: Adobe Illustrator 22.0.1, SVG Export Plug-In . SVG Version: 6.00 Build 0)  -->
<svg version="1.1" id="Слой_1" xmlns="http://www.w3.org/2000/svg" xmlns:xlink="http://www.w3.org/1999/xlink" x="0px" y="0px"
	 viewBox="0 0 600 600" style="enable-background:new 0 0 600 600;" xml:space="preserve">
<style type="text/css">
	.st0{fill:#D0443E;}
	.st1{fill:#303156;}
</style>
<g>
	<g>
		<g>
			<g>
				<g>
					<rect x="240.6" y="278.1" class="st0" width="8.8" height="8.8"/>
					<rect x="252" y="266.7" class="st0" width="8.8" height="8.8"/>
					<rect x="240.6" y="266.7" class="st0" width="8.8" height="8.8"/>
					<rect x="252" y="278.1" class="st0" width="8.8" height="8.8"/>
				</g>
			</g>
			<g>
				<path class="st1" d="M235.1,240h-13.3H211h-2.5l-39.9,57.6h9.7h3.6h13.3h12.7h0.6l39.9-57.6h-7.9H235.1z M201.8,288.1h-13.3
					l26.8-38.7h13.3L201.8,288.1z"/>
				<polygon class="st1" points="266.4,240 253.1,240 292.9,297.6 306.2,297.6 				"/>
			</g>
		</g>
	</g>
</g>
<g>
	<path class="st1" d="M209.5,305.9V357h-9.4v-21.6h-23V357h-9.4v-51.2h9.4v21.7h23v-21.7H209.5z"/>
	<path class="st1" d="M216.7,357l26.9-53.1l26.9,53.1h-9.7l-4.6-9.1H231l-4.7,9.1H216.7z M234.3,341.5h18.6l-9.3-18.2L234.3,341.5z"
		/>
	<path class="st1" d="M307.1,313.8H291V357h-9.4v-43.3h-16.1v-7.9h41.6V313.8z"/>
	<path class="st0" d="M347.9,349.1v7.9h-33.6v-51.2h9.4v43.3H347.9z"/>
	<path class="st0" d="M376.9,357.9c-3.5,0-7-0.7-10.2-2.1c-3.1-1.3-5.9-3.2-8.4-5.6c-2.4-2.4-4.2-5.2-5.6-8.4c-1.4-3.2-2-6.6-2-10.2
		c0-3.5,0.6-6.9,2-10.2c1.4-3.2,3.2-6,5.6-8.4c2.4-2.4,5.3-4.3,8.4-5.6c3.2-1.4,6.7-2.1,10.2-2.1s7,0.7,10.2,2.1
		c3.1,1.3,5.9,3.2,8.4,5.6c2.4,2.4,4.3,5.2,5.6,8.4c1.4,3.2,2.1,6.6,2.1,10.2c0,3.6-0.7,7-2.1,10.2c-1.3,3.2-3.2,6-5.6,8.4
		c-2.4,2.4-5.3,4.3-8.4,5.6C383.9,357.2,380.5,357.9,376.9,357.9z M376.9,314.1c-4.7,0-9.1,1.8-12.5,5.2c-3.3,3.3-5.1,7.7-5.1,12.4
		c0,4.8,1.8,9.1,5.1,12.5c3.3,3.4,7.8,5.2,12.5,5.2s9.1-1.8,12.5-5.2c3.3-3.3,5.2-7.7,5.2-12.5c0-4.7-1.9-9.1-5.2-12.4
		C386.1,315.9,381.6,314.1,376.9,314.1z"/>
	<path class="st0" d="M455.8,305.9v53.3l-36.7-33.8V357h-9.4V304l36.7,33.9v-32H455.8z"/>
</g>
</svg>
