<svg xmlns="http://www.w3.org/2000/svg" width="50.000000pt" height="50.000000pt" viewBox="0 0 50.000000 50.000000" preserveAspectRatio="xMidYMid meet"><g transform="translate(0.000000,50.000000) scale(0.100000,-0.100000)" fill="#000000" stroke="none"><path d="M50 250 l0 -220 200 0 200 0 0 220 0 220 -200 0 -200 0 0 -220z m380 0 l0 -200 -180 0 -180 0 0 200 0 200 180 0 180 0 0 -200z"></path><path d="M90 250 l0 -180 160 0 160 0 0 180 0 180 -160 0 -160 0 0 -180z m300 133 c0 -25 0 -26 -20 -8 -19 17 -21 17 -38 2 -24 -22 -70 -22 -94 0 -17 16 -20 16 -35 0 -16 -15 -18 -15 -35 0 -17 15 -19 15 -38 -2 -20 -18 -20 -17 -20 8 l0 27 140 0 140 0 0 -27z m-230 -33 c0 -11 -4 -20 -10 -20 -5 0 -10 9 -10 20 0 11 5 20 10 20 6 0 10 -9 10 -20z m70 0 c0 -11 -4 -20 -10 -20 -5 0 -10 9 -10 20 0 11 5 20 10 20 6 0 10 -9 10 -20z m130 0 c0 -11 -4 -20 -10 -20 -5 0 -10 9 -10 20 0 11 5 20 10 20 6 0 10 -9 10 -20z m-193 -27 c16 15 18 15 35 0 17 -15 19 -15 36 0 10 10 31 17 47 17 16 0 37 -7 47 -17 17 -15 19 -15 38 2 20 18 20 17 20 -23 0 -40 -1 -42 -32 -42 -17 0 -40 8 -50 17 -17 16 -20 16 -35 0 -16 -15 -18 -15 -35 0 -17 15 -19 15 -36 0 -17 -15 -19 -15 -35 0 -15 16 -18 15 -37 -2 -20 -18 -20 -18 -20 25 0 43 0 43 20 25 19 -17 22 -18 37 -2z m-7 -73 c0 -11 -4 -20 -10 -20 -5 0 -10 9 -10 20 0 11 5 20 10 20 6 0 10 -9 10 -20z m70 0 c0 -11 -4 -20 -10 -20 -5 0 -10 9 -10 20 0 11 5 20 10 20 6 0 10 -9 10 -20z m70 0 c0 -11 -4 -20 -10 -20 -5 0 -10 9 -10 20 0 11 5 20 10 20 6 0 10 -9 10 -20z m-133 -27 c16 15 18 15 35 0 17 -15 19 -15 36 0 17 15 19 15 35 0 15 -16 18 -16 35 0 10 9 33 17 50 17 31 0 32 -2 32 -42 0 -41 0 -41 -20 -23 -19 17 -22 18 -37 2 -16 -15 -18 -15 -35 0 -17 15 -19 15 -36 0 -10 -10 -31 -17 -47 -17 -16 0 -37 7 -47 17 -17 15 -19 15 -38 -2 -20 -18 -20 -17 -20 25 0 43 0 43 20 25 19 -17 22 -18 37 -2z m-7 -73 c0 -11 -4 -20 -10 -20 -5 0 -10 9 -10 20 0 11 5 20 10 20 6 0 10 -9 10 -20z m130 0 c0 -11 -4 -20 -10 -20 -5 0 -10 9 -10 20 0 11 5 20 10 20 6 0 10 -9 10 -20z m70 0 c0 -11 -4 -20 -10 -20 -5 0 -10 9 -10 20 0 11 5 20 10 20 6 0 10 -9 10 -20z m-192 -27 c24 22 70 22 94 0 17 -15 19 -15 36 0 17 15 19 15 35 0 15 -16 18 -15 37 2 20 18 20 18 20 -8 l0 -27 -140 0 -140 0 0 27 c0 25 0 26 20 8 19 -17 21 -17 38 -2z"></path></g></svg>