<svg xmlns="http://www.w3.org/2000/svg" width="50.000000pt" height="50.000000pt" viewBox="0 0 50.000000 50.000000" preserveAspectRatio="xMidYMid meet"><g transform="translate(0.000000,50.000000) scale(0.100000,-0.100000)" fill="#000000" stroke="none"><path d="M45 417 c-3 -7 -4 -87 -3 -177 l3 -165 148 -3 c96 -2 147 1 147 8 0 6 -51 10 -140 10 l-140 0 0 130 0 130 190 0 190 0 0 -40 c0 -22 5 -40 10 -40 7 0 10 29 8 78 l-3 77 -203 3 c-160 2 -204 0 -207 -11z m395 -27 c0 -19 -7 -20 -190 -20 -183 0 -190 1 -190 20 0 19 7 20 190 20 183 0 190 -1 190 -20z"></path><path d="M70 390 c0 -5 5 -10 10 -10 6 0 10 5 10 10 0 6 -4 10 -10 10 -5 0 -10 -4 -10 -10z"></path><path d="M100 390 c0 -5 5 -10 10 -10 6 0 10 5 10 10 0 6 -4 10 -10 10 -5 0 -10 -4 -10 -10z"></path><path d="M130 390 c0 -5 5 -10 10 -10 6 0 10 5 10 10 0 6 -4 10 -10 10 -5 0 -10 -4 -10 -10z"></path><path d="M383 250 c-13 -5 -23 -16 -23 -25 0 -8 -4 -15 -10 -15 -11 0 -10 -69 2 -76 4 -3 8 -34 8 -70 0 -35 3 -64 8 -64 4 0 18 7 30 16 20 14 24 14 44 0 12 -9 26 -16 30 -16 5 0 8 28 8 63 0 34 4 77 9 94 10 36 -10 93 -32 93 -7 0 -21 2 -32 5 -11 2 -30 0 -42 -5z m68 -20 c5 0 9 -7 9 -15 0 -8 5 -15 11 -15 13 0 2 -39 -18 -62 -28 -32 -84 -10 -89 36 -4 36 33 70 64 60 8 -2 18 -4 23 -4z m9 -163 c0 -35 -2 -37 -20 -27 -14 8 -26 8 -40 0 -18 -10 -20 -8 -20 24 0 36 7 41 57 41 20 0 23 -5 23 -38z"></path></g></svg>