<svg xmlns="http://www.w3.org/2000/svg" width="64.000000pt" height="64.000000pt" viewBox="0 0 64.000000 64.000000" preserveAspectRatio="xMidYMid meet"><g transform="translate(0.000000,64.000000) scale(0.100000,-0.100000)" fill="#000000" stroke="none"><path d="M280 568 c-49 -22 -128 -78 -158 -112 -37 -43 -62 -120 -62 -193 0 -30 -7 -68 -16 -85 -15 -29 -15 -32 3 -48 10 -10 49 -34 86 -54 68 -35 71 -36 187 -36 116 0 120 1 187 36 37 19 76 44 85 56 16 18 16 23 3 48 -8 16 -15 53 -15 83 0 138 -75 243 -217 302 -41 17 -49 18 -83 3z m74 -90 c12 -99 31 -105 22 -7 -6 57 -5 70 6 67 19 -7 38 -48 38 -85 0 -18 5 -33 11 -33 7 0 10 15 7 40 -2 22 -1 40 2 40 14 0 70 -61 88 -96 35 -70 35 -88 2 -113 -23 -17 -30 -29 -30 -56 0 -19 5 -35 10 -35 6 0 10 13 10 28 0 27 15 52 32 52 4 0 8 -17 8 -39 l0 -38 -62 -19 c-87 -26 -269 -26 -355 0 l-63 19 0 38 c0 22 4 39 8 39 17 0 32 -25 32 -52 0 -15 5 -28 10 -28 6 0 10 16 10 35 0 27 -7 39 -30 56 -33 25 -33 43 2 113 18 35 74 96 88 96 3 0 4 -18 2 -40 -3 -25 0 -40 7 -40 6 0 11 15 11 33 0 37 19 78 38 85 10 3 12 -12 6 -72 -4 -49 -3 -76 3 -76 6 0 13 35 17 77 8 90 11 95 39 91 19 -3 23 -12 31 -80z m-172 -322 c43 -9 105 -16 138 -16 62 0 201 25 232 41 13 7 20 4 27 -10 13 -24 -2 -38 -86 -80 -59 -29 -69 -31 -173 -31 -104 0 -114 2 -173 31 -84 42 -99 56 -86 80 7 14 14 17 27 10 10 -5 52 -16 94 -25z"></path><path d="M260 349 c0 -11 5 -17 10 -14 6 3 10 13 10 21 0 8 -4 14 -10 14 -5 0 -10 -9 -10 -21z"></path><path d="M180 220 c0 -11 5 -20 10 -20 6 0 10 9 10 20 0 11 -4 20 -10 20 -5 0 -10 -9 -10 -20z"></path><path d="M230 220 c0 -11 5 -20 10 -20 6 0 10 9 10 20 0 11 -4 20 -10 20 -5 0 -10 -9 -10 -20z"></path><path d="M280 220 c0 -11 5 -20 10 -20 6 0 10 9 10 20 0 11 -4 20 -10 20 -5 0 -10 -9 -10 -20z"></path><path d="M340 220 c0 -11 5 -20 10 -20 6 0 10 9 10 20 0 11 -4 20 -10 20 -5 0 -10 -9 -10 -20z"></path><path d="M390 220 c0 -11 5 -20 10 -20 6 0 10 9 10 20 0 11 -4 20 -10 20 -5 0 -10 -9 -10 -20z"></path><path d="M440 220 c0 -11 5 -20 10 -20 6 0 10 9 10 20 0 11 -4 20 -10 20 -5 0 -10 -9 -10 -20z"></path></g></svg>