<svg xmlns="http://www.w3.org/2000/svg" width="64.000000pt" height="64.000000pt" viewBox="0 0 64.000000 64.000000" preserveAspectRatio="xMidYMid meet"><g transform="translate(0.000000,64.000000) scale(0.100000,-0.100000)" fill="#000000" stroke="none"><path d="M224 545 c-26 -26 -58 -33 -69 -15 -12 19 -25 -1 -25 -36 0 -24 5 -34 15 -34 8 0 15 5 15 10 0 6 11 10 25 10 24 0 25 -3 25 -53 0 -41 5 -58 19 -71 11 -10 23 -32 27 -50 3 -17 12 -34 18 -38 6 -4 11 -27 11 -50 0 -42 1 -43 37 -46 l38 -3 -4 42 c-3 31 1 46 15 60 11 11 19 30 19 44 0 14 8 29 20 35 15 8 20 23 22 68 3 50 6 57 26 60 12 2 22 -1 22 -7 0 -6 7 -11 15 -11 10 0 15 10 15 34 0 35 -13 55 -25 36 -11 -18 -43 -11 -69 15 -22 22 -34 25 -96 25 -62 0 -74 -3 -96 -25z m174 -93 l3 -83 -78 3 -78 3 -3 74 c-2 53 1 77 10 83 7 4 42 7 78 6 l65 -3 3 -83z m-38 -137 c0 -22 -4 -25 -34 -25 -32 0 -46 13 -46 41 0 5 18 9 40 9 36 0 40 -2 40 -25z"></path><path d="M297 434 c-16 -16 -5 -25 26 -22 17 2 31 8 30 13 -3 12 -46 19 -56 9z"></path><path d="M304 135 c-7 -29 1 -55 16 -55 6 0 13 7 16 15 8 20 -4 65 -16 65 -5 0 -12 -11 -16 -25z"></path></g></svg>